<svg width="24" height="24" viewBox="0 0 24 24" fill="none" xmlns="http://www.w3.org/2000/svg">
<path d="M19 2C19.5304 2 20.0391 2.21071 20.4142 2.58579C20.7893 2.96086 21 3.46957 21 4V20C21 20.5304 20.7893 21.0391 20.4142 21.4142C20.0391 21.7893 19.5304 22 19 22H9C8.73478 22 8.48043 21.8946 8.29289 21.7071C8.10536 21.5196 8 21.2652 8 21C8 20.7348 8.10536 20.4804 8.29289 20.2929C8.48043 20.1054 8.73478 20 9 20H19V4H9C8.73478 4 8.48043 3.89464 8.29289 3.70711C8.10536 3.51957 8 3.26522 8 3C8 2.73478 8.10536 2.48043 8.29289 2.29289C8.48043 2.10536 8.73478 2 9 2H19ZM9.293 7.293C9.10553 7.48053 9.00021 7.73484 9.00021 8C9.00021 8.26516 9.10553 8.51947 9.293 8.707L11.586 11H4C3.73478 11 3.48043 11.1054 3.29289 11.2929C3.10536 11.4804 3 11.7348 3 12C3 12.2652 3.10536 12.5196 3.29289 12.7071C3.48043 12.8946 3.73478 13 4 13H11.586L9.293 15.293C9.19749 15.3852 9.12131 15.4956 9.0689 15.6176C9.01649 15.7396 8.9889 15.8708 8.98775 16.0036C8.9866 16.1364 9.0119 16.2681 9.06218 16.391C9.11246 16.5138 9.18671 16.6255 9.28061 16.7194C9.3745 16.8133 9.48615 16.8875 9.60905 16.9378C9.73194 16.9881 9.86362 17.0134 9.9964 17.0123C10.1292 17.0111 10.2604 16.9835 10.3824 16.9311C10.5044 16.8787 10.6148 16.8025 10.707 16.707L15.414 12L10.707 7.293C10.5195 7.10553 10.2652 7.00021 10 7.00021C9.73484 7.00021 9.48053 7.10553 9.293 7.293Z" fill="black"/>
</svg>
